<svg width="905" height="982" viewBox="0 0 905 982" fill="none" xmlns="http://www.w3.org/2000/svg">
<path d="M118.5 212.5C290.863 117.798 404.771 71.7579 667.5 14L872.5 -120.5L911.5 317L886 588C854.575 730.61 824.695 802.884 717.5 898C556.696 965.034 257.098 930.114 248.5 873C240.163 817.613 88.4143 704.841 105 588C56.9817 460.029 39.3138 385.035 118.5 212.5Z" fill="#FF7200" fill-opacity="0.37"/>
<path d="M61.0543 244.075C254.272 131.435 381.962 76.6744 676.478 7.97627L906.281 -152L950 368.369L921.415 690.7C886.187 860.322 852.692 946.286 732.528 1059.42C552.268 1139.15 216.421 1097.62 206.783 1029.68C197.437 963.805 27.3282 829.672 45.921 690.7C-7.90737 538.489 -27.7129 449.291 61.0543 244.075Z" fill="#FF7200" fill-opacity="0.16"/>
</svg>
