<svg width="48" height="31" viewBox="0 0 48 31" fill="none" xmlns="http://www.w3.org/2000/svg">
<path d="M31.076 18.6092L30.5078 19.0404L31.107 19.4274L31.8476 19.9057L31.9714 19.9857H32.1189H34.1383L47.0784 28.3429L43.8857 30.4048L30.6714 21.8706V20.7434V20.4711L30.4427 20.3234L29.7021 19.8451L29.4515 19.6833L29.1901 19.8269C26.1444 21.5006 22.1693 22.5286 17.8286 22.5286C13.178 22.5286 8.74164 21.3341 5.49313 19.2361C2.24361 17.1374 0.5 14.3476 0.5 11.5143C0.5 8.681 2.24361 5.89113 5.49313 3.79248C8.74164 1.69448 13.178 0.5 17.8286 0.5C22.4791 0.5 26.9155 1.69448 30.164 3.79248C33.4135 5.89113 35.1571 8.681 35.1571 11.5143C35.1571 14.1634 33.6544 16.6521 31.076 18.6092ZM17.8286 3.04286C14.3194 3.04286 11.136 3.94847 8.81445 5.44784C6.4967 6.94472 4.98571 9.07517 4.98571 11.5143C4.98571 13.9534 6.4967 16.0839 8.81445 17.5807C11.136 19.0801 14.3194 19.9857 17.8286 19.9857C21.3378 19.9857 24.5211 19.0801 26.8427 17.5807C29.1604 16.0839 30.6714 13.9534 30.6714 11.5143C30.6714 9.07517 29.1604 6.94472 26.8427 5.44784C24.5211 3.94847 21.3378 3.04286 17.8286 3.04286Z" fill="#021718" stroke="#FFFAFA"/>
</svg>
